<?xml version="1.0" standalone="no"?>
<!DOCTYPE svg PUBLIC "-//W3C//DTD SVG 20010904//EN"
 "http://www.w3.org/TR/2001/REC-SVG-20010904/DTD/svg10.dtd">
<svg version="1.0" xmlns="http://www.w3.org/2000/svg"
 width="184.000000pt" height="184.000000pt" viewBox="0 0 184.000000 184.000000"
 preserveAspectRatio="xMidYMid meet">
<metadata>
Created by potrace 1.11, written by Peter Selinger 2001-2013
</metadata>
<g transform="translate(0.000000,184.000000) scale(0.100000,-0.100000)"
fill="#000000" stroke="none">
<path d="M273 1650 c-12 -5 -34 -29 -48 -55 -105 -178 -106 -429 -2 -670 99
-231 295 -463 518 -611 302 -201 609 -247 849 -127 84 42 98 64 86 129 -7 33
-29 61 -139 172 -73 74 -145 141 -161 149 -19 10 -45 14 -74 10 -40 -4 -53
-14 -126 -86 l-82 -81 -76 52 c-171 118 -334 280 -464 460 l-57 80 81 81 c85
86 107 123 97 167 -6 27 -281 308 -322 329 -25 13 -49 13 -80 1z"/>
<path d="M902 1614 c-25 -17 -30 -65 -9 -82 7 -6 51 -16 98 -21 156 -18 279
-79 384 -192 99 -106 164 -256 165 -377 0 -59 14 -82 49 -82 46 0 54 20 49
118 -6 103 -51 233 -111 324 -49 73 -168 186 -240 227 -69 40 -183 79 -251 86
-28 3 -65 8 -81 11 -18 2 -40 -2 -53 -12z"/>
<path d="M898 1389 c-21 -12 -24 -62 -5 -76 6 -6 45 -15 85 -22 89 -14 159
-48 223 -108 59 -55 95 -128 111 -225 14 -88 22 -100 62 -96 44 4 53 38 38
130 -32 188 -176 345 -357 393 -68 17 -132 19 -157 4z"/>
<path d="M943 1169 c-45 -17 -36 -84 12 -94 14 -3 37 -7 51 -10 33 -7 72 -46
79 -79 3 -14 7 -37 10 -51 8 -37 47 -52 80 -31 42 28 29 114 -30 192 -40 52
-151 93 -202 73z"/>
</g>
</svg>
